<svg width="19" height="20" viewBox="0 0 19 20" fill="none" xmlns="http://www.w3.org/2000/svg">
<path d="M10.7595 9.99266L14.2849 6.28448C14.4522 6.1088 14.5463 5.8704 14.5465 5.62173C14.5467 5.37307 14.453 5.1345 14.286 4.95851C14.119 4.78252 13.8923 4.68352 13.6559 4.6833C13.4195 4.68308 13.1927 4.78166 13.0254 4.95733L9.5 8.66552L5.97461 4.95733C5.8073 4.78134 5.58037 4.68247 5.34375 4.68247C5.10713 4.68247 4.88021 4.78134 4.71289 4.95733C4.54558 5.13332 4.45158 5.37202 4.45158 5.6209C4.45158 5.86979 4.54558 6.10849 4.71289 6.28448L8.23828 9.99266L4.71289 13.7008C4.54558 13.8768 4.45158 14.1155 4.45158 14.3644C4.45158 14.6133 4.54558 14.852 4.71289 15.028C4.88021 15.204 5.10713 15.3028 5.34375 15.3028C5.58037 15.3028 5.8073 15.204 5.97461 15.028L9.5 11.3198L13.0254 15.028C13.1927 15.204 13.4196 15.3028 13.6563 15.3028C13.8929 15.3028 14.1198 15.204 14.2871 15.028C14.4544 14.852 14.5484 14.6133 14.5484 14.3644C14.5484 14.1155 14.4544 13.8768 14.2871 13.7008L10.7595 9.99266Z" fill="white"/>
</svg>
