<svg width="59" height="25" viewBox="0 0 59 25" fill="none" xmlns="http://www.w3.org/2000/svg">
<path d="M0 0H4.92424C6.8723 0 8.27922 0.360751 9.14502 1.08225C10.0289 1.80375 10.4708 2.90404 10.4708 4.38312C10.4708 5.06854 10.3716 5.66378 10.1732 6.16883C9.99279 6.67388 9.78535 7.09776 9.55087 7.44048C9.2803 7.8373 8.98269 8.18002 8.65801 8.46862C9.09091 8.63095 9.49675 8.83839 9.87554 9.09091C10.2543 9.34344 10.588 9.65007 10.8766 10.0108C11.1652 10.3716 11.3907 10.8045 11.553 11.3095C11.7334 11.7965 11.8236 12.3737 11.8236 13.0411C11.8236 13.7807 11.7244 14.4841 11.526 15.1515C11.3276 15.8009 10.9939 16.369 10.5249 16.8561C10.0559 17.3431 9.43362 17.7309 8.65801 18.0195C7.8824 18.3081 6.91739 18.4524 5.76299 18.4524H0V0ZM2.27273 8.00866H6.79113C7.04365 7.81025 7.26912 7.5487 7.46753 7.22403C7.64791 6.95346 7.81025 6.61977 7.95455 6.22294C8.09885 5.80808 8.171 5.31205 8.171 4.73485C8.171 3.67064 7.89141 2.95815 7.33225 2.5974C6.79113 2.21861 6.02453 2.02922 5.03247 2.02922H2.27273V8.00866ZM2.27273 16.4232H5.95238C7.14286 16.4232 8.03571 16.1165 8.63095 15.5032C9.22619 14.89 9.52381 14.0693 9.52381 13.0411C9.52381 12.5902 9.46068 12.1753 9.33442 11.7965C9.22619 11.4178 9.02778 11.0931 8.73918 10.8225C8.45058 10.5339 8.06277 10.3084 7.57576 10.1461C7.08875 9.98377 6.48449 9.9026 5.76299 9.9026H2.27273V16.4232Z" fill="#2997FF"/>
<path d="M23.2737 16.9643H23.2196C23.0572 17.0905 22.8227 17.2619 22.5161 17.4784C22.2095 17.6768 21.8577 17.8752 21.4609 18.0736C21.0641 18.272 20.6222 18.4434 20.1352 18.5877C19.6662 18.732 19.1882 18.8041 18.7012 18.8041C18.0338 18.8041 17.4656 18.7139 16.9966 18.5336C16.5277 18.3712 16.1489 18.0916 15.8603 17.6948C15.5717 17.298 15.3642 16.7749 15.238 16.1255C15.1117 15.4762 15.0486 14.6645 15.0486 13.6905V4.84307H17.2131V13.3658C17.2131 13.9069 17.2221 14.3939 17.2401 14.8268C17.2582 15.2597 17.3213 15.6295 17.4295 15.9361C17.5378 16.2428 17.7091 16.4863 17.9436 16.6667C18.1961 16.829 18.5479 16.9102 18.9988 16.9102C19.4678 16.9102 19.9548 16.811 20.4598 16.6126C20.9649 16.4141 21.4248 16.1887 21.8397 15.9361C22.3267 15.6475 22.8047 15.3229 23.2737 14.9621V4.84307H25.4382V16.6937C25.4562 17.3431 25.5013 17.9293 25.5735 18.4524L23.436 18.6688L23.2737 16.9643Z" fill="#2997FF"/>
<path d="M27.6126 4.84307H29.9124L32.4557 10.9849C32.7082 11.5801 32.9337 12.1753 33.1321 12.7706C33.3486 13.3658 33.538 13.8979 33.7003 14.3669C33.8987 14.926 34.0701 15.4672 34.2144 15.9903H34.2414C34.4038 15.4672 34.5841 14.926 34.7825 14.3669C34.9449 13.8979 35.1343 13.3658 35.3507 12.7706C35.5672 12.1753 35.7926 11.5801 36.0271 10.9849L38.381 4.84307H40.6538L34.2144 21.0768C33.9618 21.7442 33.6281 22.3214 33.2133 22.8084C32.8164 23.2955 32.4286 23.7013 32.0499 24.026C31.5989 24.4048 31.1299 24.7294 30.6429 25L29.5877 23.1331C29.9665 22.9527 30.3183 22.7273 30.6429 22.4567C30.9315 22.2222 31.2201 21.9246 31.5087 21.5639C31.7973 21.2211 32.0318 20.8063 32.2122 20.3193L33.0509 18.1007L27.6126 4.84307Z" fill="#2997FF"/>
<path d="M48.8677 13.8528L55.8752 10.2002L48.8677 6.81818V4.7619L58.9597 9.49675V10.6061L48.8677 16.1797V13.8528Z" fill="#2997FF"/>
</svg>
