<svg width="47" height="44" viewBox="0 0 47 44" fill="none" xmlns="http://www.w3.org/2000/svg">
<rect width="47" height="44" rx="22" fill="#2997FF"/>
<path d="M30.316 23.58C32.608 25.718 33.862 27.58 33.408 28.48C32.663 29.94 27.625 28.221 22.153 24.642C16.683 21.063 12.849 16.978 13.593 15.519C14.057 14.609 16.519 15.075 19.396 16.324" stroke="#E4E4E4" stroke-width="2" stroke-linecap="round" stroke-linejoin="round"/>
<path d="M16.5 22C16.5 22.9193 16.6811 23.8295 17.0328 24.6788C17.3846 25.5281 17.9002 26.2997 18.5503 26.9497C19.2003 27.5998 19.9719 28.1154 20.8212 28.4672C21.6705 28.8189 22.5807 29 23.5 29C24.4193 29 25.3295 28.8189 26.1788 28.4672C27.0281 28.1154 27.7997 27.5998 28.4497 26.9497C29.0998 26.2997 29.6154 25.5281 29.9672 24.6788C30.3189 23.8295 30.5 22.9193 30.5 22C30.5 21.0807 30.3189 20.1705 29.9672 19.3212C29.6154 18.4719 29.0998 17.7003 28.4497 17.0503C27.7997 16.4002 27.0281 15.8846 26.1788 15.5328C25.3295 15.1811 24.4193 15 23.5 15C22.5807 15 21.6705 15.1811 20.8212 15.5328C19.9719 15.8846 19.2003 16.4002 18.5503 17.0503C17.9002 17.7003 17.3846 18.4719 17.0328 19.3212C16.6811 20.1705 16.5 21.0807 16.5 22Z" stroke="#E4E4E4" stroke-width="2" stroke-linecap="round" stroke-linejoin="round"/>
</svg>
