<svg width="23" height="22" viewBox="0 0 23 22" fill="none" xmlns="http://www.w3.org/2000/svg">
<path d="M11.4969 7.33163C9.38527 7.33163 7.66201 8.97997 7.66201 10.9998C7.66201 13.0196 9.38527 14.668 11.4969 14.668C13.6085 14.668 15.3318 13.0196 15.3318 10.9998C15.3318 8.97997 13.6085 7.33163 11.4969 7.33163ZM22.9987 10.9998C22.9987 9.48079 23.0131 7.97556 22.9239 6.45931C22.8347 4.69815 22.4147 3.13513 21.0683 1.84728C19.7191 0.556683 18.0879 0.157671 16.2467 0.0723655C14.6586 -0.0129406 13.0849 0.000818509 11.4998 0.000818509C9.91174 0.000818509 8.33808 -0.0129406 6.75292 0.0723655C4.91171 0.157671 3.27763 0.559435 1.93125 1.84728C0.581987 3.13788 0.164838 4.69815 0.0756548 6.45931C-0.0135288 7.97831 0.000855714 9.48355 0.000855714 10.9998C0.000855714 12.516 -0.0135288 14.024 0.0756548 15.5403C0.164838 17.3014 0.584864 18.8645 1.93125 20.1523C3.28051 21.4429 4.91171 21.8419 6.75292 21.9272C8.34096 22.0125 9.91462 21.9988 11.4998 21.9988C13.0878 21.9988 14.6615 22.0125 16.2467 21.9272C18.0879 21.8419 19.7219 21.4401 21.0683 20.1523C22.4176 18.8617 22.8347 17.3014 22.9239 15.5403C23.016 14.024 22.9987 12.5188 22.9987 10.9998ZM11.4969 16.6437C8.23164 16.6437 5.59641 14.1231 5.59641 10.9998C5.59641 7.87649 8.23164 5.35583 11.4969 5.35583C14.7622 5.35583 17.3974 7.87649 17.3974 10.9998C17.3974 14.1231 14.7622 16.6437 11.4969 16.6437ZM17.6391 6.4428C16.8767 6.4428 16.261 5.85391 16.261 5.12468C16.261 4.39545 16.8767 3.80657 17.6391 3.80657C18.4014 3.80657 19.0171 4.39545 19.0171 5.12468C19.0173 5.29784 18.9818 5.46934 18.9127 5.62936C18.8435 5.78938 18.742 5.93478 18.614 6.05722C18.486 6.17966 18.334 6.27674 18.1667 6.34291C17.9994 6.40907 17.8201 6.44302 17.6391 6.4428Z" fill="white"/>
</svg>
