<svg width="12" height="11" viewBox="0 0 12 11" fill="none" xmlns="http://www.w3.org/2000/svg">
<g clip-path="url(#clip0_0_45)">
<path d="M4.5564 10.3827C4.1884 10.3827 3.83986 10.2351 3.61652 9.9806L0.593827 6.54769C0.500374 6.44168 0.432148 6.32087 0.393048 6.19217C0.353948 6.06348 0.344742 5.92942 0.365955 5.79766C0.387168 5.6659 0.438385 5.53903 0.516678 5.4243C0.594971 5.30957 0.698805 5.20923 0.822242 5.12901C0.945636 5.04846 1.08631 4.98963 1.2362 4.9559C1.3861 4.92216 1.54226 4.91419 1.69575 4.93242C1.84924 4.95066 1.99703 4.99476 2.13065 5.06218C2.26428 5.12961 2.3811 5.21904 2.47444 5.32534L4.46335 7.58244L9.46394 0.680269C9.62978 0.452377 9.89402 0.290328 10.1987 0.229667C10.5033 0.169005 10.8235 0.214684 11.0891 0.356684C11.6415 0.651909 11.8115 1.27726 11.4664 1.75282L5.55805 9.90425C5.45719 10.044 5.31817 10.1605 5.15305 10.2437C4.98794 10.3268 4.80171 10.374 4.61055 10.3813C4.59194 10.3827 4.57502 10.3827 4.5564 10.3827Z" fill="white"/>
</g>
<defs>
<clipPath id="clip0_0_45">
<rect width="11.4609" height="10.1108" fill="white" transform="scale(1.04703)"/>
</clipPath>
</defs>
</svg>
