<svg width="27" height="24" viewBox="0 0 27 24" fill="none" xmlns="http://www.w3.org/2000/svg">
<g clip-path="url(#clip0_0_167)">
<path d="M26.6235 24.0002V23.9992H26.6302V15.1972C26.6302 10.8912 25.6016 7.57422 20.0159 7.57422C17.3307 7.57422 15.5288 8.90222 14.7931 10.1612H14.7154V7.97622H9.41937V23.9992H14.934V16.0652C14.934 13.9762 15.3734 11.9562 18.2439 11.9562C21.0723 11.9562 21.1144 14.3402 21.1144 16.1992V24.0002H26.6235Z" fill="white"/>
<path d="M0.442101 7.97742H5.96342V24.0004H0.442101V7.97742Z" fill="white"/>
<path d="M3.19784 0.000488281C1.43248 0.000488281 0 1.29149 0 2.88249C0 4.47349 1.43248 5.79149 3.19784 5.79149C4.96319 5.79149 6.39567 4.47349 6.39567 2.88249C6.39456 1.29149 4.96208 0.000488281 3.19784 0.000488281V0.000488281Z" fill="white"/>
</g>
<defs>
<clipPath id="clip0_0_167">
<rect width="26.6301" height="24" fill="white"/>
</clipPath>
</defs>
</svg>
