<svg width="27" height="24" viewBox="0 0 27 24" fill="none" xmlns="http://www.w3.org/2000/svg">
<g clip-path="url(#clip0_0_165)">
<path d="M23.8928 7.11337C24.9757 6.42037 25.8867 5.55537 26.629 4.55937V4.55837C25.6381 4.94937 24.584 5.20937 23.4833 5.33537C24.6151 4.72637 25.4795 3.76937 25.8856 2.61637C24.8304 3.18337 23.6653 3.58337 22.4237 3.80737C21.4217 2.84537 19.9937 2.25037 18.4358 2.25037C15.4133 2.25037 12.98 4.46137 12.98 7.17137C12.98 7.56137 13.0166 7.93637 13.1064 8.29337C8.56823 8.09337 4.55151 6.13337 1.85299 3.14637C1.38253 3.88337 1.10513 4.72637 1.10513 5.63337C1.10513 7.33737 2.07824 8.84737 3.53069 9.72237C2.65301 9.70737 1.79308 9.47737 1.06408 9.11637V9.17037C1.06408 11.5614 2.95593 13.5474 5.43808 14.0054C4.99313 14.1154 4.50935 14.1674 4.00671 14.1674C3.65719 14.1674 3.30434 14.1494 2.97368 14.0834C3.68049 16.0314 5.68884 17.4644 8.07446 17.5114C6.21701 18.8204 3.85802 19.6094 1.30486 19.6094C0.857692 19.6094 0.428281 19.5914 -0.00112951 19.5424C2.41777 20.9474 5.28273 21.7504 8.37405 21.7504C18.0086 21.7504 24.2878 14.5064 23.8928 7.11337Z" fill="white"/>
</g>
<defs>
<clipPath id="clip0_0_165">
<rect width="26.6301" height="24" fill="white"/>
</clipPath>
</defs>
</svg>
