<svg width="26" height="24" viewBox="0 0 26 24" fill="none" xmlns="http://www.w3.org/2000/svg">
<path d="M17.7328 7.07946C16.8736 6.37378 15.8418 5.87088 14.726 5.61384C13.6101 5.35679 12.4433 5.35327 11.3257 5.60357C11.523 5.84732 12.8201 7.47589 13.9895 9.46072C16.5286 8.58214 17.6022 7.24821 17.7328 7.07946ZM14.2188 13.0929C10.194 14.3866 8.74598 16.9661 8.6183 17.2071C9.82835 18.0777 11.3489 18.5973 13 18.5973C13.9895 18.5973 14.9326 18.4125 15.7886 18.075C15.6812 17.4964 15.2692 15.4821 14.2652 13.0768L14.2188 13.0929ZM15.6029 12.7741C16.5373 15.142 16.9174 17.0705 16.99 17.4723C18.5917 16.4732 19.7321 14.8902 20.0484 13.0554C19.8047 12.9857 17.8402 12.4446 15.6029 12.7741ZM13 0C5.82098 0 0 5.37321 0 12C0 18.6268 5.82098 24 13 24C20.179 24 26 18.6268 26 12C26 5.37321 20.179 0 13 0ZM13 19.7143C8.39196 19.7143 4.64286 16.2536 4.64286 12C4.64286 7.74643 8.39196 4.28571 13 4.28571C17.608 4.28571 21.3571 7.74643 21.3571 12C21.3571 16.2536 17.608 19.7143 13 19.7143ZM14.5408 10.4411C14.7062 10.7545 14.8659 11.0732 15.0138 11.3946C15.0661 11.5071 15.1183 11.6196 15.1676 11.7348C17.5413 11.4589 19.9033 11.9009 20.1384 11.9464C20.1239 10.3902 19.5203 8.9625 18.5279 7.84018C18.3741 8.03036 17.1786 9.44732 14.5408 10.4411ZM12.6112 9.85714C11.4272 7.91518 10.1533 6.28393 9.96473 6.04554C7.9683 6.91607 6.47388 8.61429 6.0125 10.658C6.3317 10.6634 9.27411 10.6768 12.6112 9.85714ZM13.4991 12.067C13.592 12.0402 13.6848 12.0134 13.7806 11.9893C13.6007 11.6143 13.4062 11.2393 13.2031 10.8723C9.63973 11.858 6.1779 11.8152 5.86741 11.8098C5.86451 11.8768 5.86451 11.9438 5.86451 12.0107C5.86451 13.7036 6.55804 15.2491 7.69844 16.417C7.85804 16.1598 9.81674 13.1652 13.4991 12.067Z" fill="white"/>
</svg>
