<svg width="19" height="20" viewBox="0 0 19 20" fill="none" xmlns="http://www.w3.org/2000/svg">
<path d="M10.7595 9.99265L14.2849 6.28446C14.4522 6.10879 14.5463 5.87039 14.5465 5.62172C14.5467 5.37306 14.453 5.13449 14.286 4.9585C14.119 4.78251 13.8923 4.68351 13.6559 4.6833C13.4195 4.68308 13.1927 4.78165 13.0254 4.95733L9.49999 8.66551L5.9746 4.95733C5.80729 4.78134 5.58036 4.68247 5.34374 4.68247C5.10713 4.68247 4.8802 4.78134 4.71288 4.95733C4.54557 5.13332 4.45157 5.37201 4.45157 5.6209C4.45157 5.86978 4.54557 6.10848 4.71288 6.28446L8.23828 9.99265L4.71288 13.7008C4.54557 13.8768 4.45157 14.1155 4.45157 14.3644C4.45157 14.6133 4.54557 14.852 4.71288 15.028C4.8802 15.204 5.10713 15.3028 5.34374 15.3028C5.58036 15.3028 5.80729 15.204 5.9746 15.028L9.49999 11.3198L13.0254 15.028C13.1927 15.204 13.4196 15.3028 13.6562 15.3028C13.8929 15.3028 14.1198 15.204 14.2871 15.028C14.4544 14.852 14.5484 14.6133 14.5484 14.3644C14.5484 14.1155 14.4544 13.8768 14.2871 13.7008L10.7595 9.99265Z" fill="#767CFB"/>
</svg>
