<svg width="147" height="19" viewBox="0 0 147 19" fill="none" xmlns="http://www.w3.org/2000/svg">
<path d="M0 0H2.27726V16.3203H10.6814V18.4892H0V0Z" fill="#2997FF"/>
<path d="M23.021 18.1638C22.6053 18.2904 22.1716 18.3988 21.7197 18.4892C21.286 18.5795 20.798 18.6609 20.2558 18.7332C19.7316 18.8054 19.1804 18.8416 18.602 18.8416C17.6984 18.8416 16.858 18.7151 16.0808 18.4621C15.3036 18.209 14.6259 17.8024 14.0475 17.2421C13.4692 16.6818 13.0083 15.9589 12.6649 15.0733C12.3396 14.1696 12.1769 13.0671 12.1769 11.7658C12.1769 10.5911 12.3396 9.56087 12.6649 8.67527C12.9902 7.77159 13.433 7.02154 13.9933 6.42512C14.5717 5.81062 15.2404 5.34975 15.9995 5.0425C16.7766 4.73525 17.617 4.58163 18.5207 4.58163C19.4063 4.58163 20.1744 4.75332 20.8251 5.09672C21.4757 5.44012 22.0089 5.91003 22.4246 6.50645C22.8583 7.0848 23.1746 7.77159 23.3734 8.56683C23.5903 9.34398 23.6988 10.1663 23.6988 11.0339L23.2921 12.2267H14.5355C14.5355 12.787 14.6078 13.3473 14.7524 13.9075C14.897 14.4678 15.141 14.9739 15.4844 15.4257C15.8458 15.8775 16.3067 16.2481 16.867 16.5372C17.4453 16.8083 18.1592 16.9439 19.0087 16.9439C19.5509 16.9439 20.0479 16.9168 20.4998 16.8625C20.9516 16.7903 21.3402 16.718 21.6655 16.6457C22.0089 16.5553 22.3252 16.4559 22.6144 16.3475L23.021 18.1638ZM21.4486 10.4916C21.4486 10.3651 21.4215 10.085 21.3673 9.65123C21.3131 9.21747 21.1866 8.76563 20.9877 8.29572C20.7889 7.82581 20.4817 7.41012 20.066 7.04865C19.6503 6.66911 19.0991 6.47934 18.4123 6.47934C17.6532 6.47934 17.0297 6.642 16.5417 6.96732C16.0537 7.27457 15.6651 7.64508 15.3759 8.07884C15.0868 8.51261 14.888 8.9554 14.7795 9.40724C14.6711 9.85908 14.6168 10.2205 14.6168 10.4916H21.4486Z" fill="#2997FF"/>
<path d="M34.2408 12.2267C33.8794 12.2448 33.536 12.2629 33.2106 12.2809C32.8853 12.299 32.56 12.3261 32.2347 12.3623C31.9274 12.3803 31.6473 12.4074 31.3943 12.4436C30.093 12.6062 29.1712 12.8954 28.629 13.3111C28.0868 13.7087 27.8157 14.2871 27.8157 15.0462C27.8157 15.6787 28.0055 16.1577 28.385 16.483C28.7826 16.7903 29.2977 16.9439 29.9303 16.9439C30.7978 16.9439 31.566 16.7993 32.2347 16.5101C32.9215 16.2029 33.5902 15.8053 34.2408 15.3173V12.2267ZM34.2137 17.215C33.3643 17.703 32.569 18.1006 31.828 18.4078C31.1051 18.697 30.3189 18.8416 29.4694 18.8416C28.2585 18.8416 27.2916 18.5524 26.5686 17.9741C25.8638 17.3776 25.5113 16.4017 25.5113 15.0462C25.5113 14.3413 25.6921 13.7268 26.0535 13.2027C26.415 12.6785 26.8849 12.2448 27.4633 11.9014C28.0597 11.5399 28.7284 11.2598 29.4694 11.061C30.2104 10.8622 30.9695 10.7356 31.7467 10.6814C32.072 10.6453 32.4967 10.6182 33.0209 10.6001C33.545 10.5639 33.9517 10.5368 34.2408 10.5188C34.2408 9.88619 34.2228 9.32591 34.1866 8.83793C34.1505 8.33187 34.042 7.90714 33.8613 7.56375C33.6805 7.20228 33.4094 6.93118 33.048 6.75044C32.7046 6.56971 32.2076 6.47934 31.5569 6.47934C31.0328 6.47934 30.5267 6.51549 30.0387 6.58778C29.5508 6.642 29.117 6.70526 28.7375 6.77755C28.2856 6.86792 27.8699 6.96732 27.4904 7.07576L27.0566 5.20516C27.5085 5.09672 27.9964 4.99732 28.5206 4.90695C28.9724 4.81658 29.4965 4.74429 30.093 4.69007C30.6894 4.61777 31.331 4.58163 32.0178 4.58163C32.9395 4.58163 33.6805 4.71718 34.2408 4.98828C34.8192 5.25938 35.262 5.62989 35.5692 6.0998C35.8945 6.55163 36.1114 7.07576 36.2199 7.67219C36.3464 8.25054 36.4096 8.86504 36.4096 9.51568V16.0221C36.4096 16.2752 36.4096 16.5463 36.4096 16.8354C36.4277 17.1065 36.4458 17.3776 36.4639 17.6487C36.5 17.9198 36.5362 18.2 36.5723 18.4892L34.4848 18.706L34.2137 17.215Z" fill="#2997FF"/>
<path d="M40.2587 7.04865C40.2587 6.63296 40.2135 5.98232 40.1231 5.09672L42.1293 4.82562L42.3461 6.80466H42.3733C42.6986 6.38897 43.0149 6.0275 43.3221 5.72025C43.6294 5.413 43.9456 5.15094 44.271 4.93406C44.6144 4.6991 44.9397 4.58163 45.2469 4.58163C45.6626 4.56355 46.241 4.60874 46.982 4.71718L46.494 6.80466C45.8976 6.69622 45.4819 6.65104 45.2469 6.66911C44.9397 6.66911 44.6144 6.8137 44.271 7.10287C43.9276 7.39205 43.6294 7.6993 43.3763 8.02462C43.051 8.42224 42.7347 8.87407 42.4275 9.38013V18.4892H40.2587V7.04865Z" fill="#2997FF"/>
<path d="M49.3925 7.56375C49.4105 7.1842 49.3654 6.36186 49.2569 5.09672L51.2631 4.82562L51.5613 6.56067C52.1035 6.1992 52.6367 5.88292 53.1608 5.61181C53.703 5.34071 54.2542 5.10576 54.8145 4.90695C55.3748 4.69007 55.917 4.58163 56.4411 4.58163C57.1821 4.58163 57.7966 4.67199 58.2846 4.85273C58.7907 5.01539 59.1973 5.29553 59.5046 5.69314C59.8118 6.09076 60.0287 6.61489 60.1552 7.26553C60.2998 7.91618 60.3721 8.72949 60.3721 9.70545V18.4892H58.2033V9.94945C58.2033 9.40724 58.1942 8.92829 58.1762 8.5126C58.1581 8.07884 58.0768 7.71737 57.9322 7.4282C57.8057 7.12095 57.5978 6.88599 57.3086 6.72333C57.0375 6.56067 56.649 6.47934 56.1429 6.47934C55.673 6.47934 55.176 6.58778 54.6518 6.80466C54.1277 7.00347 53.6126 7.23843 53.1066 7.50953C52.6005 7.78063 52.0854 8.09691 51.5613 8.45838V18.4892H49.3925V7.56375Z" fill="#2997FF"/>
<path d="M70.4135 7.31976C70.4135 6.70526 70.3592 5.96425 70.2508 5.09672L72.2841 4.82562L72.5823 6.53356C73.0703 6.17209 73.5492 5.8558 74.0191 5.5847C74.489 5.3136 74.9951 5.07865 75.5373 4.87984C76.0795 4.68103 76.6307 4.58163 77.191 4.58163C78.0947 4.58163 78.8086 4.74429 79.3327 5.06961C79.8568 5.37686 80.2454 5.91003 80.4985 6.66911C81.2395 6.14498 82.0076 5.66603 82.8028 5.23227C83.6161 4.79851 84.4565 4.58163 85.3241 4.58163C85.9928 4.58163 86.5621 4.67199 87.032 4.85273C87.5019 5.01539 87.8815 5.29553 88.1706 5.69314C88.4598 6.09076 88.6677 6.61489 88.7942 7.26553C88.9207 7.91618 88.984 8.72949 88.984 9.70545V18.4892H86.8151V9.94945C86.8151 9.40724 86.8061 8.92829 86.788 8.5126C86.77 8.07884 86.7067 7.71737 86.5983 7.4282C86.4898 7.12095 86.3091 6.88599 86.0561 6.72333C85.8211 6.56067 85.4777 6.47934 85.0259 6.47934C84.6102 6.47934 84.2126 6.5426 83.833 6.66911C83.4715 6.77755 83.092 6.94021 82.6944 7.15709C82.2968 7.37398 81.6823 7.81678 80.8509 8.48549V18.4892H78.6821V9.94945C78.6821 9.40724 78.673 8.92829 78.655 8.5126C78.6369 8.07884 78.5736 7.71737 78.4652 7.4282C78.3567 7.12095 78.176 6.88599 77.923 6.72333C77.688 6.56067 77.3446 6.47934 76.8928 6.47934C76.4229 6.47934 75.9349 6.57874 75.4289 6.77755C74.9228 6.97636 74.4438 7.21131 73.992 7.48242C73.5402 7.75352 73.0703 8.0698 72.5823 8.43127V18.4892H70.4135V7.31976Z" fill="#2997FF"/>
<path d="M94.3558 11.7387C94.3558 13.4918 94.7444 14.8022 95.5215 15.6697C96.3168 16.5192 97.3831 16.9439 98.7205 16.9439C100.04 16.9439 101.07 16.5192 101.811 15.6697C102.552 14.8202 102.923 13.5461 102.923 11.8472C102.923 10.0398 102.525 8.69334 101.73 7.80774C100.953 6.92214 99.8863 6.47934 98.5308 6.47934C97.1753 6.47934 96.136 6.92214 95.4131 7.80774C94.7082 8.67527 94.3558 9.98559 94.3558 11.7387ZM92.0514 11.7116C92.0514 10.338 92.2683 9.1994 92.7021 8.29572C93.1358 7.37398 93.6871 6.642 94.3558 6.0998C95.0245 5.53952 95.7384 5.15094 96.4975 4.93406C97.2747 4.6991 98.0066 4.58163 98.6934 4.58163C99.3441 4.58163 100.049 4.69007 100.808 4.90695C101.585 5.10576 102.299 5.47626 102.95 6.01847C103.6 6.5426 104.143 7.2565 104.576 8.16017C105.01 9.04577 105.227 10.1754 105.227 11.5489C105.227 12.9768 105.001 14.1606 104.549 15.1004C104.115 16.0402 103.564 16.7903 102.896 17.3505C102.227 17.8927 101.504 18.2723 100.727 18.4892C99.9495 18.7241 99.2266 18.8416 98.5579 18.8416C97.8711 18.8416 97.1481 18.7332 96.3891 18.5163C95.63 18.2994 94.9251 17.9289 94.2745 17.4048C93.6419 16.8625 93.1087 16.1306 92.675 15.2088C92.2593 14.2871 92.0514 13.1213 92.0514 11.7116Z" fill="#2997FF"/>
<path d="M108.405 7.04865C108.405 6.63296 108.36 5.98232 108.269 5.09672L110.275 4.82562L110.492 6.80466H110.519C110.845 6.38897 111.161 6.0275 111.468 5.72025C111.776 5.413 112.092 5.15094 112.417 4.93406C112.761 4.6991 113.086 4.58163 113.393 4.58163C113.809 4.56355 114.387 4.60874 115.128 4.71718L114.64 6.80466C114.044 6.69622 113.628 6.65104 113.393 6.66911C113.086 6.66911 112.761 6.8137 112.417 7.10287C112.074 7.39205 111.776 7.6993 111.522 8.02462C111.197 8.42224 110.881 8.87407 110.574 9.38013V18.4892H108.405V7.04865Z" fill="#2997FF"/>
<path d="M127.199 18.1638C126.784 18.2904 126.35 18.3988 125.898 18.4892C125.464 18.5795 124.976 18.6609 124.434 18.7332C123.91 18.8054 123.359 18.8416 122.78 18.8416C121.877 18.8416 121.036 18.7151 120.259 18.4621C119.482 18.209 118.804 17.8024 118.226 17.2421C117.648 16.6818 117.187 15.9589 116.843 15.0733C116.518 14.1696 116.355 13.0671 116.355 11.7658C116.355 10.5911 116.518 9.56087 116.843 8.67527C117.169 7.77159 117.611 7.02154 118.172 6.42512C118.75 5.81062 119.419 5.34975 120.178 5.0425C120.955 4.73525 121.795 4.58163 122.699 4.58163C123.585 4.58163 124.353 4.75332 125.003 5.09672C125.654 5.44012 126.187 5.91003 126.603 6.50645C127.037 7.0848 127.353 7.77159 127.552 8.56683C127.769 9.34398 127.877 10.1663 127.877 11.0339L127.47 12.2267H118.714C118.714 12.787 118.786 13.3473 118.931 13.9075C119.075 14.4678 119.319 14.9739 119.663 15.4257C120.024 15.8775 120.485 16.2481 121.045 16.5372C121.624 16.8083 122.338 16.9439 123.187 16.9439C123.729 16.9439 124.226 16.9168 124.678 16.8625C125.13 16.7903 125.519 16.718 125.844 16.6457C126.187 16.5553 126.504 16.4559 126.793 16.3475L127.199 18.1638ZM125.627 10.4916C125.627 10.3651 125.6 10.085 125.546 9.65123C125.491 9.21747 125.365 8.76563 125.166 8.29572C124.967 7.82581 124.66 7.41012 124.244 7.04865C123.829 6.66911 123.277 6.47934 122.591 6.47934C121.832 6.47934 121.208 6.642 120.72 6.96732C120.232 7.27457 119.843 7.64508 119.554 8.07884C119.265 8.51261 119.066 8.9554 118.958 9.40724C118.849 9.85908 118.795 10.2205 118.795 10.4916H125.627Z" fill="#2997FF"/>
<path d="M136.888 13.8804L143.909 10.2205L136.888 6.83177V4.7714L147 9.51568V10.6272L136.888 16.2119V13.8804Z" fill="#2997FF"/>
</svg>
